<svg width="383" height="1005" viewBox="0 0 383 1005" fill="none" xmlns="http://www.w3.org/2000/svg">
<g id="male_final">
<g id="body">
<path fill-rule="evenodd" clip-rule="evenodd" d="M169.249 161.154C168.374 160.613 165.489 152.693 161.453 139.75C161.238 139.063 161.403 138.5 161.819 138.5C162.235 138.5 164.082 143.113 165.925 148.75C167.767 154.387 169.514 159.636 169.807 160.414C170.128 161.265 169.906 161.56 169.249 161.154ZM197.343 158.404C198.646 155.432 200.498 150.608 201.458 147.685C202.418 144.762 203.429 142.596 203.705 142.871C204.353 143.52 200.291 155.872 197.792 160.847C194.938 166.53 194.596 164.67 197.343 158.404ZM139.528 177.704C129.06 177.103 119.16 176.174 117.528 175.641C115.388 174.942 117.211 174.827 124.06 175.227C129.285 175.532 140.311 176.165 148.562 176.633C163.225 177.466 172.06 179.439 172.06 181.883C172.06 182.45 171.304 182.56 170.31 182.138C165.041 179.901 156.602 178.685 139.528 177.704ZM205.277 179.681C209.297 177.236 212.819 176.709 231.56 175.743C252.778 174.649 260.355 174.628 256.56 175.674C254.91 176.128 244.11 176.989 232.56 177.586C213.83 178.555 211.046 178.926 206.81 181.017C201.459 183.658 200.341 182.683 205.277 179.681ZM187.06 187.667C186.082 187.667 184.219 186.782 182.921 185.7C181.622 184.619 181.096 183.719 181.751 183.7C182.406 183.682 183.22 184.117 183.56 184.667C183.9 185.217 185.475 185.667 187.06 185.667C188.081 185.667 189.098 185.48 189.783 185.201C190.162 185.046 190.439 184.863 190.56 184.667C190.9 184.117 191.714 183.682 192.369 183.7C193.638 183.735 191.721 185.494 189.722 186.657C188.728 187.236 187.714 187.667 187.06 187.667ZM254.31 269.329C253.623 269.607 252.498 269.607 251.81 269.329C251.123 269.052 251.685 268.825 253.06 268.825C254.435 268.825 254.998 269.052 254.31 269.329ZM123.789 270.271C123.457 270.603 122.594 270.639 121.873 270.35C121.075 270.031 121.312 269.794 122.477 269.746C123.531 269.703 124.121 269.939 123.789 270.271ZM248.508 271.049C247.618 271.39 247.217 271.222 247.567 270.656C247.903 270.112 248.601 269.667 249.119 269.667C250.557 269.667 250.24 270.384 248.508 271.049ZM116.994 276.632C115.105 275.62 114.397 272.663 115.727 271.334C116.821 270.24 117.035 270.568 116.366 272.312C115.052 275.737 122.889 278.247 126.062 275.417C127.254 274.354 127.266 274.428 126.139 275.917C124.667 277.862 119.979 278.229 116.994 276.632ZM247.14 273.917C248.642 276.496 255.637 276.317 257.298 273.657C257.989 272.552 258.72 272.146 258.923 272.755C259.61 274.818 256.258 276.918 252.102 277.027C248.156 277.131 246.066 275.785 246.106 273.167C246.114 272.617 246.579 272.955 247.14 273.917ZM49.0971 375.95C48.0781 374.878 42.9731 359.047 43.0501 357.198C43.1061 355.858 49.9981 374.455 49.9991 375.95C50.0001 376.55 49.6671 376.55 49.0971 375.95ZM320.948 376.236C319.478 377.145 319.897 374.617 322.783 365.167C324.294 360.217 325.678 356.931 325.859 357.865C326.274 360.017 322.135 375.503 320.948 376.236Z" fill="#E7A97B"/>
<path fill-rule="evenodd" clip-rule="evenodd" d="M159.801 598.505C135.582 599.122 105.147 595.687 90.6531 590.699C87.4051 589.582 84.5341 588.667 84.2751 588.667C83.6651 588.667 84.7861 607.04 86.5681 626.257C88.4381 646.419 90.4441 658.761 95.2251 679.526C97.7011 690.282 98.9731 697.877 98.5681 699.492C98.2081 700.925 97.5231 712.463 97.0441 725.132C96.3471 743.609 95.5651 751.63 93.0911 765.667C91.1871 776.47 89.7791 788.525 89.4111 797.167C88.7351 813.061 89.1961 816.883 96.9851 859.854C106.738 913.658 108.386 929.137 105.58 940.585C104.576 944.683 104.065 949.311 104.394 951.335C104.893 954.413 104.321 955.848 100.128 962.029C97.4641 965.955 89.8341 974.496 83.1731 981.009C71.0741 992.838 69.3651 995.572 72.2601 998.467C74.1221 1000.33 74.7581 999.927 75.4531 996.453C76.0911 993.263 80.5291 987.667 82.4211 987.667C82.9641 987.667 82.4521 988.686 81.2821 989.931C80.1121 991.176 78.4261 993.941 77.5341 996.076C75.7411 1000.37 76.4791 1001.62 80.8101 1001.65C82.6711 1001.66 83.0601 1001.12 83.0601 998.512C83.0601 996.127 84.0461 994.419 87.1021 991.512C92.6351 986.249 94.4951 986.629 89.2681 991.955C84.2661 997.052 83.5461 1001.25 87.5031 1002.24C90.7731 1003.06 91.7151 1002.32 92.4641 998.325C93.1201 994.831 100.527 985.801 101.742 987.015C102.117 987.39 101.046 989.153 99.3621 990.932C91.6951 999.033 92.5171 1004.75 101.171 1003.5C103.114 1003.22 103.507 1002.54 103.618 999.228C103.733 995.831 104.425 994.704 108.656 991.026C111.353 988.682 113.707 987.183 113.887 987.697C114.067 988.21 112.942 989.749 111.387 991.117L110.563 991.842C109.859 992.462 110.29 993.624 111.228 993.635C112.696 993.653 114.608 993.94 115.478 994.274C118.614 995.477 116.958 996.16 111.701 995.833C105.739 995.461 104.371 996.726 106.028 1001.08C107.856 1005.89 117.772 1005.62 125.424 1000.55C130.727 997.037 132.054 993.888 132.075 984.768C132.084 981.137 132.527 977.492 133.06 976.667C133.747 975.603 134.034 976.856 134.045 980.974L134.051 983.394C134.055 984.893 135.685 985.82 136.975 985.058C141.564 982.347 142.257 979.733 140.544 971.59C139.728 967.71 139.044 963.328 139.025 961.852C139.015 961.106 138.027 960.851 137.657 961.498L137.56 961.667C135.45 965.359 135.673 962.081 138.047 954.506C140.494 946.701 140.557 942.6 138.34 935.599C136.163 928.724 136.229 914.559 138.531 894.767C140.604 876.946 141.954 869.338 146.516 849.752C153.325 820.525 154.346 807.154 151.56 783.667C150.745 776.792 150.073 769.248 150.069 766.903C150.064 764.558 149.571 761.857 148.974 760.901C148.133 759.554 148.704 756.638 151.506 747.969C158.081 727.632 161.211 708.33 162.581 679.667C163.013 670.62 164.364 660.395 166.676 648.665C168.574 639.039 171.349 623.724 172.843 614.633L175.56 598.103L172.843 598.172L159.801 598.505ZM138.416 720.5C135.967 720.5 124 705.278 124 702.162C124 700.641 125.003 701.787 128.014 706.75C129.767 709.638 133.049 713.913 135.308 716.25C137.568 718.587 138.966 720.5 138.416 720.5ZM108.008 750.631C104.437 746.446 102.891 738.582 102.688 723.582C102.585 715.891 102.794 709.914 103.153 710.299C103.512 710.685 104.008 717.3 104.254 725C104.641 737.077 105.068 739.962 107.366 746C109.723 752.194 109.796 752.727 108.008 750.631ZM127.972 747.659C130.235 744.343 133.009 738.9 134.136 735.565C135.262 732.229 136.568 729.5 137.038 729.5C137.933 729.5 135.079 738.614 132.919 742.652C131.08 746.092 124.676 754.509 124.234 754.068C124.026 753.859 125.708 750.975 127.972 747.659Z" fill="#E7A97B"/>
<path fill-rule="evenodd" clip-rule="evenodd" d="M235.388 715.647C237.871 712.885 241.162 708.635 242.702 706.201C244.242 703.767 245.672 701.946 245.88 702.154C246.708 702.981 240.693 712.566 236.88 716.494C231.16 722.388 229.947 721.699 235.388 715.647ZM266.06 722.019C266.06 715.315 266.333 709.119 266.667 708.249C267.001 707.379 267.382 706.667 267.515 706.667C267.648 706.667 267.693 713.754 267.615 722.417C267.491 736.31 267.203 738.853 265.169 743.986C263.902 747.186 262.666 749.606 262.423 749.364C262.181 749.121 262.9 745.612 264.021 741.565C265.559 736.015 266.06 731.212 266.06 722.019ZM242.674 750.822C238.491 745.124 234.377 736.572 233.429 731.604C232.477 726.617 234.184 728.838 236.125 735.112C237.04 738.07 239.926 743.704 242.537 747.633C247.991 755.836 248.092 758.203 242.674 750.822Z" fill="#E7A97B"/>
<path d="M139.439 70.4626C140.435 72.6288 141.114 73.6186 141.426 73.6829C144.891 83.513 143.439 72.0643 141.939 67.9754C141.905 67.8813 141.748 68.1002 141.743 68C141.618 65.6021 140.358 64.1841 138.947 64.1945C134.544 64.2269 135.128 74.0044 140.115 84.461C143.25 91.0353 145.799 94.5336 147.119 94.3873C147.761 94.3162 145.514 93.3599 145.5 91.5C145.489 90.0006 144.884 88.6453 144.633 87.7231C144.225 86.2241 143.527 85.5499 142.628 85.9026C141.295 86.4254 138.947 79.1615 138.912 74.4086C138.883 70.4957 139.682 69.9877 138 70C137.234 70.0057 137.504 69.55 137.5 69C137.481 66.4431 137.743 66.772 139.439 70.4626Z" fill="#E7A97B"/>
<path d="M143 77.5C143.665 78.1552 143.953 80.0397 143.965 81.6717C143.991 85.2046 143.56 84.9197 141.472 80.0219C139.902 76.3414 140.712 75.2458 143 77.5Z" fill="#E7A97B"/>
<path d="M198.5 47.103C192.002 48.659 189.267 50.912 191.139 53.168C192.593 54.92 196.74 54.856 202 53C206.895 51.273 216.232 51.0191 219.066 52.535C222.479 54.362 221.336 50.994 217.567 48.119C213.564 45.066 208.203 44.78 198.5 47.103Z" fill="#684219"/>
<path fill-rule="evenodd" clip-rule="evenodd" d="M195.426 16.3485C183.419 19.5025 180.518 19.6255 171.841 17.3485C161.064 14.5205 157.875 14.5795 154.196 17.6745C150.476 20.8055 148.237 25.4825 146.913 32.8915C146.344 36.0785 144.903 41.1615 143.711 44.1865C141.79 49.0625 141.559 51.4535 141.678 65.2545C141.686 66.1834 141.708 67.0983 141.743 68C142.12 77.864 144.003 85.456 145.5 93C146.174 96.3985 148.805 100.23 149.744 103.167L150.154 104.32C151.535 107.821 151.08 110.869 158.392 118.371C163.951 124.075 169.948 129.362 171.718 130.121C175.006 131.53 184.892 131.864 191.141 131.144C191.454 131.108 191.758 131.069 192.051 131.028C193.711 130.794 195.038 130.475 195.8 130.073C198.506 128.642 211.2 114.497 216 109C218.538 105.839 220.746 98.8229 223.5 92.5C224.401 88.1963 224.599 88.8227 223.886 84.4987C223.783 83.8731 223.694 83.2265 223.628 82.5527C223.581 82.0681 223.546 81.5694 223.526 81.0544C223.447 78.9637 225.979 77.4935 226.627 75.4099C226.717 75.1224 226.77 74.8231 226.776 74.5089C226.786 73.9743 226.233 72.9933 225.725 72.0468C225.292 71.2403 224.892 70.4589 224.903 70C224.915 69.472 224.013 67.4101 224.025 66.8828C224.157 60.9963 224.215 55.2212 223.3 50.9135C222.439 46.8574 222.454 44.4411 222.092 42.4771C221.509 39.3116 218.596 37.2334 216.922 34.4838C215.94 32.8691 215.178 31.1501 214.551 29.6865C210.016 17.3485 202.414 14.5135 195.426 16.3485ZM153.877 53.035C144.219 52.996 143.613 52.219 149.876 47.905C153.102 45.682 153.975 47.339 159.317 47.905C171.837 49.231 176 49.129 176 53.336C176 54.548 174.882 54.647 169.25 53.929C165.538 53.457 158.62 53.0541 153.877 53.035ZM191.139 53.168C189.267 50.912 192.002 48.659 198.5 47.103C208.203 44.78 213.564 45.066 217.567 48.119C221.336 50.994 222.479 54.362 219.066 52.535C216.232 51.0191 206.895 51.273 202 53C196.74 54.856 192.593 54.92 191.139 53.168ZM159.317 57.017C151.582 57.035 150.757 56.565 156.739 55.551C161.287 54.78 167.727 55.791 169.33 57.528C170.259 58.534 170.089 58.6101 168.5 57.897C167.4 57.404 163.267 57.008 159.317 57.017ZM196.5 57.374C197.6 56.68 200.075 55.791 202 55.399C203.925 55.008 206.4 54.864 207.5 55.08C208.6 55.296 210.175 55.55 211 55.644C211.825 55.738 209.575 56.135 206 56.527C202.425 56.918 198.375 57.5531 197 57.938C194.675 58.5891 194.64 58.549 196.5 57.374ZM152.904 64.784C149.121 62.55 149.229 60.738 153.25 58.991C158.207 56.837 164.178 57.143 168.025 59.75C169.851 60.988 171.505 62.4851 171.699 63.078C172.799 66.4351 157.977 67.781 152.904 64.784ZM179.103 81.499C178.771 81.498 178.5 76.14 178.5 69.593C178.5 57.677 179.187 55.017 180.364 62.377C181.051 66.669 180.072 81.501 179.103 81.499ZM175.5 90.0461C173.433 89.9981 172.31 86.7411 173.39 83.927C174.21 81.789 174.889 82.208 174.294 84.485C173.563 87.277 174.818 90.4131 175.939 88.5981C176.619 87.4991 177.337 87.586 179.857 89.075C182.813 90.821 183.098 90.8231 186.627 89.1411C189.546 87.7491 190.475 87.65 191.101 88.664C192.206 90.451 193.443 87.102 192.548 84.75C192.035 83.404 192.155 83.272 193.068 84.177C194.81 85.905 193.37 90.687 191.217 90.328C190.272 90.1701 188.017 90.6571 186.205 91.41C183.439 92.5601 182.475 92.564 180.205 91.4361C178.717 90.6971 176.6 90.0711 175.5 90.0461ZM184.138 101.426C182.842 102.12 181.776 102.055 180.628 101.211C179.222 100.177 179.494 99.9891 182.49 99.925C186.506 99.8391 186.727 100.041 184.138 101.426ZM166.511 104.661C165.955 104.298 167.75 103.718 170.5 103.373C173.25 103.029 176.85 102.975 178.5 103.254C180.15 103.532 185.663 103.666 190.75 103.551C191.584 103.532 192.384 103.524 193.139 103.525C193.16 103.525 193.182 103.525 193.203 103.525C197.245 103.536 200 103.831 200 104.293C200 104.614 197.163 104.87 193.139 105.044C183.676 105.452 167.646 105.403 166.511 104.661ZM179.25 112.484C176.913 111.901 175 111.001 175 110.486C175 109.914 175.998 109.929 177.565 110.525C180.867 111.78 186.158 111.771 189.492 110.503C191.318 109.809 191.916 109.828 191.46 110.565C191.1 111.147 189.627 112.071 188.187 112.619C186.076 113.422 185.852 113.795 187.034 114.542C188.992 115.781 187.443 115.764 185.236 114.523C184.281 113.986 181.587 113.068 179.25 112.484Z" fill="#E7A97B"/>
<path d="M157 60.918C157 61.698 157.273 63.048 157.607 63.918C158.386 65.947 156.159 65.9411 153.5 63.9061C151.524 62.3941 151.523 62.3591 153.441 60.938C155.896 59.12 157 59.113 157 60.918Z" fill="white"/>
<path d="M170 63.508C170 64.429 167.47 65.5 165.296 65.5C164.103 65.5 164.012 65.19 164.895 64.127C165.35 63.5788 165.585 62.6889 165.539 61.8738C165.522 61.5649 165.465 61.2667 165.363 61.002C164.723 59.336 164.82 59.336 167.345 60.991C168.805 61.947 170 63.08 170 63.508Z" fill="white"/>
<path d="M170.5 103.373C167.75 103.718 165.955 104.298 166.511 104.661C167.646 105.403 183.676 105.452 193.139 105.044L193.203 103.525L193.139 103.525C192.384 103.524 191.584 103.532 190.75 103.551C185.663 103.666 180.15 103.532 178.5 103.254C176.85 102.975 173.25 103.029 170.5 103.373Z" fill="#9E1818"/>
<path d="M193.139 105.044C197.163 104.87 200 104.614 200 104.293C200 103.831 197.245 103.536 193.203 103.525L193.139 105.044Z" fill="#9E1818"/>
<path d="M139.439 70.4626C137.743 66.772 137.481 66.4431 137.5 69C137.504 69.55 137.234 70.0057 138 70C139.682 69.9877 138.883 70.4957 138.912 74.4086C138.947 79.1615 141.295 86.4254 142.628 85.9026C143.527 85.5499 144.225 86.2241 144.633 87.7231L143.965 81.6717C143.991 85.2046 143.56 84.9197 141.472 80.0219C139.902 76.3414 140.712 75.2458 143 77.5L141.426 73.6829C141.114 73.6186 140.435 72.6288 139.439 70.4626Z" fill="#BD9467"/>
<path d="M156.739 55.551C150.757 56.565 151.582 57.035 159.317 57.017C163.267 57.008 167.4 57.404 168.5 57.897C170.089 58.6101 170.259 58.534 169.33 57.528C167.727 55.791 161.287 54.78 156.739 55.551Z" fill="#BD9467"/>
<path d="M202 55.399C200.075 55.791 197.6 56.68 196.5 57.374C194.64 58.549 194.675 58.5891 197 57.938C198.375 57.5531 202.425 56.918 206 56.527C209.575 56.135 211.825 55.738 211 55.644C210.175 55.55 208.6 55.296 207.5 55.08C206.4 54.864 203.925 55.008 202 55.399Z" fill="#BD9467"/>
<path d="M178.5 69.593C178.5 76.14 178.771 81.498 179.103 81.499C180.072 81.501 181.051 66.669 180.364 62.377C179.187 55.017 178.5 57.677 178.5 69.593Z" fill="#BD9467"/>
<path d="M173.39 83.927C172.31 86.7411 173.433 89.9981 175.5 90.0461C176.6 90.0711 178.717 90.6971 180.205 91.4361C182.475 92.564 183.439 92.5601 186.205 91.41C188.017 90.6571 190.272 90.1701 191.217 90.328C193.37 90.687 194.81 85.905 193.068 84.177C192.155 83.272 192.035 83.404 192.548 84.75C193.443 87.102 192.206 90.451 191.101 88.664C190.475 87.65 189.546 87.7491 186.627 89.1411C183.098 90.8231 182.813 90.821 179.857 89.075C177.337 87.586 176.619 87.4991 175.939 88.5981C174.818 90.4131 173.563 87.277 174.294 84.485C174.889 82.208 174.21 81.789 173.39 83.927Z" fill="#BD9467"/>
<path d="M180.628 101.211C181.776 102.055 182.842 102.12 184.138 101.426C186.727 100.041 186.506 99.8391 182.49 99.925C179.494 99.9891 179.222 100.177 180.628 101.211Z" fill="#BD9467"/>
<path d="M175 110.486C175 111.001 176.913 111.901 179.25 112.484C181.587 113.068 184.281 113.986 185.236 114.523C187.443 115.764 188.992 115.781 187.034 114.542C185.852 113.795 186.076 113.422 188.187 112.619C189.627 112.071 191.1 111.147 191.46 110.565C191.916 109.828 191.318 109.809 189.492 110.503C186.158 111.771 180.867 111.78 177.565 110.525C175.998 109.929 175 109.914 175 110.486Z" fill="#BD9467"/>
<path d="M171.718 130.121C169.948 129.362 163.951 124.075 158.392 118.371C151.08 110.869 151.535 107.821 150.154 104.32L153.56 113.9L157.25 118.994C159.176 121.654 161.314 124.167 163.757 126.362C172.178 133.928 176.308 135.033 187.115 134.26C188.698 134.147 190.108 133.977 191.422 133.704C191.598 133.667 191.772 133.629 191.944 133.588L192.051 131.028C191.758 131.069 191.454 131.108 191.141 131.144C184.892 131.864 175.006 131.53 171.718 130.121Z" fill="#BD9467"/>
<path d="M216 109C211.2 114.497 198.506 128.642 195.8 130.073C195.038 130.475 193.711 130.794 192.051 131.028L191.944 133.588C197.358 132.318 201.257 129.097 209.333 120.361C211.537 117.977 213.275 114.717 214.427 112.3C215.335 110.395 215.879 109.014 216 109Z" fill="#BD9467"/>
<path d="M161.453 139.75C165.489 152.693 168.374 160.613 169.249 161.154C169.906 161.56 170.128 161.265 169.807 160.414C169.514 159.636 167.767 154.387 165.925 148.75C164.082 143.113 162.235 138.5 161.819 138.5C161.403 138.5 161.238 139.063 161.453 139.75Z" fill="#BD9467"/>
<path d="M201.458 147.685C200.498 150.608 198.646 155.432 197.343 158.404C194.596 164.67 194.938 166.53 197.792 160.847C200.291 155.872 204.353 143.52 203.705 142.871C203.429 142.596 202.418 144.762 201.458 147.685Z" fill="#BD9467"/>
<path fill-rule="evenodd" clip-rule="evenodd" d="M164.895 64.127C165.35 63.5788 165.585 62.6889 165.539 61.8738C165.297 62.181 165.131 62.5525 165.069 62.9624L164.895 64.127Z" fill="#272525"/>
<path d="M43.0501 357.198C42.9731 359.047 48.0781 374.878 49.0971 375.95C49.6671 376.55 50.0001 376.55 49.9991 375.95C49.9981 374.455 43.1061 355.858 43.0501 357.198Z" fill="#BD9467"/>
<path d="M55.1361 588.9C58.7015 593.755 58.7353 595.179 55.6242 592.52C55.1333 592.1 54.5641 591.579 53.9181 590.953C50.1931 587.346 47.0001 582.695 47.0001 580.875C47.0001 580.534 47.4311 580.717 48.1187 581.254C49.7793 582.55 52.9368 585.906 55.1361 588.9Z" fill="#E7A97B"/>
<path d="M316.611 584.25C315.819 585.763 313.505 588.575 311.468 590.5L310.214 591.686C309.74 592.134 309.001 591.581 309.297 591C310.681 588.288 316.645 581.5 317.644 581.5C317.868 581.5 317.403 582.737 316.611 584.25Z" fill="#E7A97B"/>
<path d="M124 702.162C124 705.278 135.967 720.5 138.416 720.5C138.966 720.5 137.568 718.587 135.308 716.25C133.049 713.913 129.767 709.638 128.014 706.75C125.003 701.787 124 700.641 124 702.162Z" fill="#BD9467"/>
<path d="M134.136 735.565C133.009 738.9 130.235 744.343 127.972 747.659C125.708 750.975 124.026 753.859 124.234 754.068C124.676 754.509 131.08 746.092 132.919 742.652C135.079 738.614 137.933 729.5 137.038 729.5C136.568 729.5 135.262 732.229 134.136 735.565Z" fill="#BD9467"/>
<path d="M102.688 723.582C102.891 738.582 104.437 746.446 108.008 750.631C109.796 752.727 109.723 752.194 107.366 746C105.068 739.962 104.641 737.077 104.254 725C104.008 717.3 103.512 710.685 103.153 710.299C102.794 709.914 102.585 715.891 102.688 723.582Z" fill="#BD9467"/>
<path d="M242.702 706.201C241.162 708.635 237.871 712.885 235.388 715.647C229.947 721.699 231.16 722.388 236.88 716.494C240.693 712.566 246.708 702.981 245.88 702.154C245.672 701.946 244.242 703.767 242.702 706.201Z" fill="#BD9467"/>
<path d="M266.667 708.249C266.333 709.119 266.06 715.315 266.06 722.019C266.06 731.212 265.559 736.015 264.021 741.565C262.9 745.612 262.181 749.121 262.423 749.364C262.666 749.606 263.902 747.186 265.169 743.986C267.203 738.853 267.491 736.31 267.615 722.417C267.693 713.754 267.648 706.667 267.515 706.667C267.382 706.667 267.001 707.379 266.667 708.249Z" fill="#BD9467"/>
<path d="M233.429 731.604C234.377 736.572 238.491 745.124 242.674 750.822C248.092 758.203 247.991 755.836 242.537 747.633C239.926 743.704 237.04 738.07 236.125 735.112C234.184 728.838 232.477 726.617 233.429 731.604Z" fill="#BD9467"/>
<path d="M322.783 365.167C319.897 374.617 319.478 377.145 320.948 376.236C322.135 375.503 326.274 360.017 325.859 357.865C325.678 356.931 324.294 360.217 322.783 365.167Z" fill="#BD9467"/>
<path d="M117.528 175.641C119.16 176.174 129.06 177.103 139.528 177.704C156.602 178.685 165.041 179.901 170.31 182.138C171.304 182.56 172.06 182.45 172.06 181.883C172.06 179.439 163.225 177.466 148.562 176.633C140.311 176.165 129.285 175.532 124.06 175.227C117.211 174.827 115.388 174.942 117.528 175.641Z" fill="#BD9467"/>
<path d="M182.921 185.7C184.219 186.782 186.082 187.667 187.06 187.667C187.714 187.667 188.728 187.236 189.722 186.657C191.721 185.494 193.638 183.735 192.369 183.7C191.714 183.682 190.9 184.117 190.56 184.667C190.439 184.863 190.162 185.046 189.783 185.201C189.098 185.48 188.081 185.667 187.06 185.667C185.475 185.667 183.9 185.217 183.56 184.667C183.22 184.117 182.406 183.682 181.751 183.7C181.096 183.719 181.622 184.619 182.921 185.7Z" fill="#BD9467"/>
<path d="M231.56 175.743C212.819 176.709 209.297 177.236 205.277 179.681C200.341 182.683 201.459 183.658 206.81 181.017C211.046 178.926 213.83 178.555 232.56 177.586C244.11 176.989 254.91 176.128 256.56 175.674C260.355 174.628 252.778 174.649 231.56 175.743Z" fill="#BD9467"/>
<path d="M157 60.918C157 61.698 157.273 63.048 157.607 63.918C158.386 65.947 156.159 65.9411 153.5 63.9061C151.524 62.3941 151.523 62.3591 153.441 60.938C155.896 59.12 157 59.113 157 60.918Z" fill="white"/>
<path d="M157 60.918C157 61.698 157.273 63.048 157.607 63.918C158.386 65.947 156.159 65.9411 153.5 63.9061C151.524 62.3941 151.523 62.3591 153.441 60.938C155.896 59.12 157 59.113 157 60.918Z" fill="white"/>
<path d="M157 60.918C157 61.698 157.273 63.048 157.607 63.918C158.386 65.947 156.159 65.9411 153.5 63.9061C151.524 62.3941 151.523 62.3591 153.441 60.938C155.896 59.12 157 59.113 157 60.918Z" fill="white"/>
<path d="M157 60.918C157 61.698 157.273 63.048 157.607 63.918C158.386 65.947 156.159 65.9411 153.5 63.9061C151.524 62.3941 151.523 62.3591 153.441 60.938C155.896 59.12 157 59.113 157 60.918Z" fill="white"/>
<path d="M157 60.918C157 61.698 157.273 63.048 157.607 63.918C158.386 65.947 156.159 65.9411 153.5 63.9061C151.524 62.3941 151.523 62.3591 153.441 60.938C155.896 59.12 157 59.113 157 60.918Z" fill="white"/>
<path d="M157 60.918C157 61.698 157.273 63.048 157.607 63.918C158.386 65.947 156.159 65.9411 153.5 63.9061C151.524 62.3941 151.523 62.3591 153.441 60.938C155.896 59.12 157 59.113 157 60.918Z" fill="white"/>
<path d="M157 60.918C157 61.698 157.273 63.048 157.607 63.918C158.386 65.947 156.159 65.9411 153.5 63.9061C151.524 62.3941 151.523 62.3591 153.441 60.938C155.896 59.12 157 59.113 157 60.918Z" fill="white"/>
<path d="M157 60.918C157 61.698 157.273 63.048 157.607 63.918C158.386 65.947 156.159 65.9411 153.5 63.9061C151.524 62.3941 151.523 62.3591 153.441 60.938C155.896 59.12 157 59.113 157 60.918Z" fill="white"/>
<path d="M157 60.918C157 61.698 157.273 63.048 157.607 63.918C158.386 65.947 156.159 65.9411 153.5 63.9061C151.524 62.3941 151.523 62.3591 153.441 60.938C155.896 59.12 157 59.113 157 60.918Z" fill="white"/>
<path d="M157 60.918C157 61.698 157.273 63.048 157.607 63.918C158.386 65.947 156.159 65.9411 153.5 63.9061C151.524 62.3941 151.523 62.3591 153.441 60.938C155.896 59.12 157 59.113 157 60.918Z" fill="white"/>
<path d="M157 60.918C157 61.698 157.273 63.048 157.607 63.918C158.386 65.947 156.159 65.9411 153.5 63.9061C151.524 62.3941 151.523 62.3591 153.441 60.938C155.896 59.12 157 59.113 157 60.918Z" fill="white"/>
<path d="M157 60.918C157 61.698 157.273 63.048 157.607 63.918C158.386 65.947 156.159 65.9411 153.5 63.9061C151.524 62.3941 151.523 62.3591 153.441 60.938C155.896 59.12 157 59.113 157 60.918Z" fill="white"/>
<path d="M157 60.918C157 61.698 157.273 63.048 157.607 63.918C158.386 65.947 156.159 65.9411 153.5 63.9061C151.524 62.3941 151.523 62.3591 153.441 60.938C155.896 59.12 157 59.113 157 60.918Z" fill="white"/>
<path d="M157 60.918C157 61.698 157.273 63.048 157.607 63.918C158.386 65.947 156.159 65.9411 153.5 63.9061C151.524 62.3941 151.523 62.3591 153.441 60.938C155.896 59.12 157 59.113 157 60.918Z" fill="white"/>
<path d="M157 60.918C157 61.698 157.273 63.048 157.607 63.918C158.386 65.947 156.159 65.9411 153.5 63.9061C151.524 62.3941 151.523 62.3591 153.441 60.938C155.896 59.12 157 59.113 157 60.918Z" fill="white"/>
<path d="M201.389 61.0662C201.449 61.8438 201.826 63.1685 202.227 64.0099C203.161 65.9722 200.941 66.1394 198.131 64.3173C196.044 62.9635 196.04 62.9287 197.842 61.3628C200.148 59.3595 201.248 59.2666 201.389 61.0662Z" fill="white"/>
<path d="M214.551 62.6376C214.622 63.5558 212.183 64.8203 210.016 64.9893C208.826 65.0821 208.711 64.7801 209.509 63.6516C210.075 62.8492 210.176 61.4311 209.733 60.4997C208.965 58.8885 209.062 58.881 211.708 60.3346C213.238 61.1742 214.517 62.2109 214.551 62.6376Z" fill="white"/>
<path fill-rule="evenodd" clip-rule="evenodd" d="M197.5 59.4366C193.627 61.4909 193.66 63.3058 197.606 65.2389C202.896 67.8324 217.569 65.3381 216.211 62.0768C215.971 61.5007 214.206 60.1368 212.289 59.0445C208.251 56.7445 202.275 56.9037 197.5 59.4366ZM202.227 64.0099C201.826 63.1685 201.449 61.8438 201.389 61.0662C201.248 59.2666 200.148 59.3595 197.842 61.3628C196.04 62.9287 196.044 62.9635 198.131 64.3173C200.941 66.1394 203.161 65.9722 202.227 64.0099ZM210.016 64.9893C212.183 64.8203 214.622 63.5558 214.551 62.6376C214.517 62.2109 213.238 61.1742 211.708 60.3346C209.062 58.881 208.965 58.8885 209.733 60.4997C210.176 61.4311 210.075 62.8492 209.509 63.6516C208.711 64.7801 208.826 65.0821 210.016 64.9893Z" fill="#272525"/>
<path d="M201.389 61.0662C201.449 61.8438 201.826 63.1685 202.227 64.0099C203.161 65.9722 200.941 66.1394 198.131 64.3173C196.044 62.9635 196.04 62.9287 197.842 61.3628C200.148 59.3595 201.248 59.2666 201.389 61.0662Z" fill="white"/>
<path d="M201.389 61.0662C201.449 61.8438 201.826 63.1685 202.227 64.0099C203.161 65.9722 200.941 66.1394 198.131 64.3173C196.044 62.9635 196.04 62.9287 197.842 61.3628C200.148 59.3595 201.248 59.2666 201.389 61.0662Z" fill="white"/>
<path d="M201.389 61.0662C201.449 61.8438 201.826 63.1685 202.227 64.0099C203.161 65.9722 200.941 66.1394 198.131 64.3173C196.044 62.9635 196.04 62.9287 197.842 61.3628C200.148 59.3595 201.248 59.2666 201.389 61.0662Z" fill="white"/>
<path d="M201.389 61.0662C201.449 61.8438 201.826 63.1685 202.227 64.0099C203.161 65.9722 200.941 66.1394 198.131 64.3173C196.044 62.9635 196.04 62.9287 197.842 61.3628C200.148 59.3595 201.248 59.2666 201.389 61.0662Z" fill="white"/>
<path d="M201.389 61.0662C201.449 61.8438 201.826 63.1685 202.227 64.0099C203.161 65.9722 200.941 66.1394 198.131 64.3173C196.044 62.9635 196.04 62.9287 197.842 61.3628C200.148 59.3595 201.248 59.2666 201.389 61.0662Z" fill="white"/>
<path d="M201.389 61.0662C201.449 61.8438 201.826 63.1685 202.227 64.0099C203.161 65.9722 200.941 66.1394 198.131 64.3173C196.044 62.9635 196.04 62.9287 197.842 61.3628C200.148 59.3595 201.248 59.2666 201.389 61.0662Z" fill="white"/>
<path d="M201.389 61.0662C201.449 61.8438 201.826 63.1685 202.227 64.0099C203.161 65.9722 200.941 66.1394 198.131 64.3173C196.044 62.9635 196.04 62.9287 197.842 61.3628C200.148 59.3595 201.248 59.2666 201.389 61.0662Z" fill="white"/>
<path d="M201.389 61.0662C201.449 61.8438 201.826 63.1685 202.227 64.0099C203.161 65.9722 200.941 66.1394 198.131 64.3173C196.044 62.9635 196.04 62.9287 197.842 61.3628C200.148 59.3595 201.248 59.2666 201.389 61.0662Z" fill="white"/>
<path d="M201.389 61.0662C201.449 61.8438 201.826 63.1685 202.227 64.0099C203.161 65.9722 200.941 66.1394 198.131 64.3173C196.044 62.9635 196.04 62.9287 197.842 61.3628C200.148 59.3595 201.248 59.2666 201.389 61.0662Z" fill="white"/>
<path d="M201.389 61.0662C201.449 61.8438 201.826 63.1685 202.227 64.0099C203.161 65.9722 200.941 66.1394 198.131 64.3173C196.044 62.9635 196.04 62.9287 197.842 61.3628C200.148 59.3595 201.248 59.2666 201.389 61.0662Z" fill="white"/>
<path d="M201.389 61.0662C201.449 61.8438 201.826 63.1685 202.227 64.0099C203.161 65.9722 200.941 66.1394 198.131 64.3173C196.044 62.9635 196.04 62.9287 197.842 61.3628C200.148 59.3595 201.248 59.2666 201.389 61.0662Z" fill="white"/>
<path d="M201.389 61.0662C201.449 61.8438 201.826 63.1685 202.227 64.0099C203.161 65.9722 200.941 66.1394 198.131 64.3173C196.044 62.9635 196.04 62.9287 197.842 61.3628C200.148 59.3595 201.248 59.2666 201.389 61.0662Z" fill="white"/>
<path d="M201.389 61.0662C201.449 61.8438 201.826 63.1685 202.227 64.0099C203.161 65.9722 200.941 66.1394 198.131 64.3173C196.044 62.9635 196.04 62.9287 197.842 61.3628C200.148 59.3595 201.248 59.2666 201.389 61.0662Z" fill="white"/>
<path d="M201.389 61.0662C201.449 61.8438 201.826 63.1685 202.227 64.0099C203.161 65.9722 200.941 66.1394 198.131 64.3173C196.044 62.9635 196.04 62.9287 197.842 61.3628C200.148 59.3595 201.248 59.2666 201.389 61.0662Z" fill="white"/>
<path d="M201.389 61.0662C201.449 61.8438 201.826 63.1685 202.227 64.0099C203.161 65.9722 200.941 66.1394 198.131 64.3173C196.044 62.9635 196.04 62.9287 197.842 61.3628C200.148 59.3595 201.248 59.2666 201.389 61.0662Z" fill="white"/>
<path fill-rule="evenodd" clip-rule="evenodd" d="M281.464 646C282.788 634.806 289.053 595.566 289.058 590.417L288.893 589.102C288.424 588.662 283.686 588.964 277.845 590.597L277.336 590.739C276.911 590.858 276.467 590.982 276 591.112C258.657 595.945 229.82 598.691 208.5 597.539L204 636C204 656 206.097 662.052 207.551 682.5C209.697 712.692 212.373 728.152 219.071 749.064C221.158 755.578 221.851 759.05 221.115 759.295C220.445 759.518 220 762.309 220 766.29C220 769.933 219.253 779.908 218.339 788.457C216.198 808.493 217.155 819.092 223.849 849.5C233.855 894.952 236.265 921.493 231.85 937.603L231.522 938.799C230.334 943.135 230.448 947.723 231.85 951.994C234.105 958.861 234.731 963.202 233.095 960.619C232.495 959.673 231.713 961.467 230.61 966.316C227.889 978.28 228.45 981.344 234 984.835C235.05 985.496 236.408 984.697 236.341 983.459L236.166 980.204C235.924 975.711 236.135 974.294 236.93 975.065C237.535 975.65 238.316 980.501 238.667 985.845C239.295 995.393 239.367 995.615 242.83 998.656C247.427 1002.69 251.907 1004.5 257.313 1004.5C262.338 1004.5 265.36 1002.04 264.83 998.385C264.524 996.272 264.059 996.12 258.5 996.321C252.953 996.522 252.647 996.423 254.451 995.011C255.802 993.955 257.496 993.679 259.951 994.116C260.864 994.278 261.382 993.108 260.649 992.541L259.786 991.873C256.17 989.075 255.116 987.5 256.859 987.5C257.332 987.5 259.781 989.315 262.301 991.534C265.965 994.758 266.945 996.312 267.192 999.284C267.491 1002.89 267.631 1003.01 271.759 1003.31C278.505 1003.8 278.481 1000.75 271.671 992.25C270.018 990.188 268.9 988.266 269.187 987.98C270.205 986.961 278.063 996.564 278.662 999.559C279.203 1002.26 279.621 1002.57 282.386 1002.3C287.165 1001.84 287.054 998.505 282.072 992.844C279.832 990.3 278 987.738 278 987.151C278 985.047 287.084 995.047 287.847 997.99C288.791 1001.63 291.445 1002.41 293.004 999.493C294.229 997.204 293 994.5 288.85 990.35C287.741 989.241 287.141 988.033 287.516 987.667C288.429 986.776 296.128 995.483 295.429 996.615C294.403 998.276 296.078 999.68 297.589 998.426C300.934 995.65 299.18 992.744 286.628 980.264C279.824 973.499 272.377 965.056 270.079 961.501C266.499 955.962 265.99 954.52 266.515 951.411C266.87 949.312 266.469 945.238 265.564 941.747C264.704 938.427 264 932.312 264 928.157C264 915.607 265.537 905.553 277.556 839.5C279.474 828.954 280.336 820.213 280.716 807.442C281.284 788.39 280.679 781.887 275.934 756C273.629 743.423 272.99 737.005 272.947 726C272.917 718.3 272.519 708.44 272.063 704.088C271.388 697.648 271.57 695.002 273.038 689.867C276.098 679.166 279.852 659.624 281.464 646ZM235.388 715.647C237.871 712.885 241.162 708.635 242.702 706.201C244.242 703.767 245.672 701.946 245.88 702.154C246.708 702.981 240.693 712.566 236.88 716.494C231.16 722.388 229.947 721.699 235.388 715.647ZM266.06 722.019C266.06 715.315 266.333 709.119 266.667 708.249C267.001 707.379 267.382 706.667 267.515 706.667C267.648 706.667 267.693 713.754 267.615 722.417C267.491 736.31 267.203 738.853 265.169 743.986C263.902 747.186 262.666 749.606 262.423 749.364C262.181 749.121 262.9 745.612 264.021 741.565C265.559 736.015 266.06 731.212 266.06 722.019ZM242.674 750.822C238.491 745.124 234.377 736.572 233.429 731.604C232.477 726.617 234.184 728.838 236.125 735.112C237.04 738.07 239.926 743.704 242.537 747.633C247.991 755.836 248.092 758.203 242.674 750.822Z" fill="#E7A97B"/>
<path fill-rule="evenodd" clip-rule="evenodd" d="M226.839 77C226.839 79.7278 225.109 83.9983 223.886 84.4987C223.783 83.8731 223.694 83.2265 223.628 82.5527C223.581 82.0681 223.546 81.5694 223.526 81.0544C223.669 80.3667 223.685 79.5818 223.701 78.8351C223.715 78.1583 223.728 77.513 223.834 77L225.442 74.7702C225.901 74.4339 226.366 74.6458 226.627 75.4099C226.76 75.7976 226.839 76.3275 226.839 77Z" fill="#E7A97B"/>
<path d="M226.839 77C226.839 76.3275 226.76 75.7976 226.627 75.4099C226.366 74.6458 225.901 74.4339 225.442 74.7702L223.834 77C223.728 77.513 223.715 78.1583 223.701 78.8351C223.685 79.5818 223.669 80.3667 223.526 81.0544C223.546 81.5694 223.581 82.0681 223.628 82.5527C223.694 83.2265 223.783 83.8731 223.886 84.4987C225.109 83.9983 226.839 79.7278 226.839 77Z" fill="#BD9467"/>
<path d="M158.052 3.54C154.639 4.963 151.219 6.72858 149 9.68652L145.976 14.9071C143.754 18.7425 142.06 22.8603 140.939 27.1488C139.943 30.9635 139.408 34.884 139.346 38.8262L138.947 64.1945C140.358 64.1841 141.618 65.6021 141.743 68C141.708 67.0983 141.686 66.1834 141.678 65.2545C141.559 51.4535 141.79 49.0625 143.711 44.1865C144.903 41.1615 146.344 36.0785 146.913 32.8915C148.237 25.4825 150.476 20.8055 154.196 17.6745C157.875 14.5795 161.064 14.5205 171.841 17.3485C180.518 19.6255 183.419 19.5025 195.426 16.3485C202.414 14.5135 210.016 17.3485 214.551 29.6865C215.178 31.1501 215.94 32.8691 216.922 34.4838C218.596 37.2334 221.509 39.3116 222.092 42.4771C222.454 44.4411 222.439 46.8574 223.3 50.9135C224.215 55.2212 224.157 60.9963 224.025 66.8828L227.573 50.704C228.523 46.3749 228.946 41.9469 228.833 37.5163L228.633 29.7059C228.545 26.2688 227.784 22.8823 226.391 19.7386C224.579 15.6474 221.752 12.0869 218.179 9.39458L217.393 8.8028C215.802 7.60393 214.095 6.56628 212.298 5.70514L211.811 5.47137C207.968 3.62987 203.826 2.49543 199.581 2.12241L192.5 1.50005L178.5 0.686523H172.309C167.415 0.686523 162.569 1.65636 158.052 3.54Z" fill="#684219"/>
<path d="M228.5 88C232.899 78.413 234.338 69.0986 232.813 65.7526C231.854 63.6476 230.581 63.6494 229.14 63.6515L229.003 63.6516C228.008 63.6516 227.121 63.8691 226.408 64.5628L224.025 66.8828C224.013 67.4101 224.915 69.472 224.903 70C224.892 70.4589 225.292 71.2403 225.725 72.0468C226.233 72.9933 226.786 73.9743 226.776 74.5089C226.77 74.8231 226.717 75.1224 226.627 75.4099C226.76 75.7976 226.839 76.3275 226.839 77C226.839 79.7278 225.109 83.9983 223.886 84.4987C224.599 88.8227 224.401 88.1963 223.5 92.5C224.524 91.6017 226.78 91.7484 228.5 88Z" fill="#E7A97B"/>
<path fill-rule="evenodd" clip-rule="evenodd" d="M169.249 161.154C168.374 160.613 165.489 152.693 161.453 139.75C161.238 139.063 161.403 138.5 161.819 138.5C162.235 138.5 164.082 143.113 165.925 148.75C167.767 154.387 169.514 159.636 169.807 160.414C170.128 161.265 169.906 161.56 169.249 161.154ZM139.528 177.704C129.06 177.103 119.16 176.174 117.528 175.641C115.388 174.942 117.211 174.827 124.06 175.227C129.285 175.532 140.311 176.165 148.562 176.633C163.225 177.466 172.06 179.439 172.06 181.883C172.06 182.45 171.304 182.56 170.31 182.138C165.041 179.901 156.602 178.685 139.528 177.704ZM123.789 270.271C123.457 270.603 122.594 270.639 121.873 270.35C121.075 270.031 121.312 269.794 122.477 269.746C123.531 269.703 124.121 269.939 123.789 270.271ZM116.994 276.632C115.105 275.62 114.397 272.663 115.727 271.334C116.821 270.24 117.035 270.568 116.366 272.312C115.052 275.737 122.889 278.247 126.062 275.417C127.254 274.354 127.266 274.428 126.139 275.917C124.667 277.862 119.979 278.229 116.994 276.632ZM49.0971 375.95C48.0781 374.878 42.9731 359.047 43.0501 357.198C43.1061 355.858 49.9981 374.455 49.9991 375.95C50.0001 376.55 49.6671 376.55 49.0971 375.95Z" fill="#E7A97B"/>
<path fill-rule="evenodd" clip-rule="evenodd" d="M197.343 158.404C198.646 155.432 200.498 150.608 201.458 147.685C202.418 144.762 203.429 142.596 203.705 142.871C204.353 143.52 200.291 155.872 197.792 160.847C194.938 166.53 194.596 164.67 197.343 158.404ZM205.277 179.681C209.297 177.236 212.819 176.709 231.56 175.743C252.778 174.649 260.355 174.628 256.56 175.674C254.91 176.128 244.11 176.989 232.56 177.586C213.83 178.555 211.046 178.926 206.81 181.017C201.459 183.658 200.341 182.683 205.277 179.681ZM254.31 269.329C253.623 269.607 252.498 269.607 251.81 269.329C251.123 269.052 251.685 268.825 253.06 268.825C254.435 268.825 254.998 269.052 254.31 269.329ZM248.508 271.049C247.618 271.39 247.217 271.222 247.567 270.656C247.903 270.112 248.601 269.667 249.119 269.667C250.557 269.667 250.24 270.384 248.508 271.049ZM247.14 273.917C248.642 276.496 255.637 276.317 257.298 273.657C257.989 272.552 258.72 272.146 258.923 272.755C259.61 274.818 256.258 276.918 252.102 277.027C248.156 277.131 246.066 275.785 246.106 273.167C246.114 272.617 246.579 272.955 247.14 273.917ZM320.948 376.236C319.478 377.145 319.897 374.617 322.783 365.167C324.294 360.217 325.678 356.931 325.859 357.865C326.274 360.017 322.135 375.503 320.948 376.236Z" fill="#E7A97B"/>
<path fill-rule="evenodd" clip-rule="evenodd" d="M197.343 158.404C198.646 155.432 200.498 150.608 201.458 147.685C202.418 144.762 203.429 142.596 203.705 142.871C204.353 143.52 200.291 155.872 197.792 160.847C194.938 166.53 194.596 164.67 197.343 158.404ZM205.277 179.681C209.297 177.236 212.819 176.709 231.56 175.743C252.778 174.649 260.355 174.628 256.56 175.674C254.91 176.128 244.11 176.989 232.56 177.586C213.83 178.555 211.046 178.926 206.81 181.017C201.459 183.658 200.341 182.683 205.277 179.681ZM254.31 269.329C253.623 269.607 252.498 269.607 251.81 269.329C251.123 269.052 251.685 268.825 253.06 268.825C254.435 268.825 254.998 269.052 254.31 269.329ZM248.508 271.049C247.618 271.39 247.217 271.222 247.567 270.656C247.903 270.112 248.601 269.667 249.119 269.667C250.557 269.667 250.24 270.384 248.508 271.049ZM247.14 273.917C248.642 276.496 255.637 276.317 257.298 273.657C257.989 272.552 258.72 272.146 258.923 272.755C259.61 274.818 256.258 276.918 252.102 277.027C248.156 277.131 246.066 275.785 246.106 273.167C246.114 272.617 246.579 272.955 247.14 273.917ZM320.948 376.236C319.478 377.145 319.897 374.617 322.783 365.167C324.294 360.217 325.678 356.931 325.859 357.865C326.274 360.017 322.135 375.503 320.948 376.236Z" fill="#E7A97B"/>
<path fill-rule="evenodd" clip-rule="evenodd" d="M224.727 147.376C218.904 145.355 215 139.868 215 133.704C215.105 126.814 214.226 117.367 214.427 112.3C213.275 114.717 211.537 117.977 209.333 120.361C201.257 129.097 197.358 132.318 191.944 133.588C191.772 133.629 191.598 133.667 191.422 133.704C190.108 133.977 188.698 134.147 187.115 134.26C176.308 135.033 172.178 133.928 163.757 126.362C161.314 124.167 159.176 121.654 157.25 118.994L153.56 113.9C153.626 117.064 152.499 137.671 151.824 140.763C151.7 141.331 151.61 141.667 151.57 141.667C151.301 141.667 148.038 143.608 144.32 145.981C140.602 148.354 133.06 152.69 127.56 155.617C122.06 158.545 112.61 163.764 106.56 167.215C99.8891 171.021 93.0021 174.118 89.0601 175.084C71.4681 179.396 56.8381 190.436 49.8581 204.667C40.8571 223.018 39.4201 238.221 43.7261 269.559C44.1591 272.705 44.0081 273.753 43.1951 273.25C42.5711 272.865 42.0531 271.338 42.0451 269.858C42.0311 267.381 40.1101 262.849 40.0751 265.211C40.0671 265.785 38.7421 272.76 37.1311 280.711C33.1401 300.406 32.1511 308.4 31.1241 329.272C30.2941 346.12 30.0011 347.957 26.1171 360.667C19.5481 382.167 18.5671 389.082 18.6711 413.167C18.7311 427.112 19.4701 440.719 20.8711 453.667C25.3911 495.449 26.1491 530.636 23.0451 554.591C22.3339 560.083 23.2728 565.663 25.7422 570.62L28.4881 576.132C35.0691 589.344 38.9581 594.528 44.3931 597.339C47.2701 598.827 47.2421 598.74 43.3121 594.017C41.0921 591.35 38.3761 587.367 37.2761 585.167C34.0261 578.667 28.8151 564.578 29.4331 563.96C29.7471 563.647 30.4861 564.69 31.0751 566.278C37.7991 584.409 39.2951 587.034 47.5581 595.202C55.2491 602.803 61.5131 607.123 63.2701 606.038C63.7041 605.769 64.0601 604.406 64.0601 603.01C64.0601 601.185 62.3441 598.885 57.9561 594.83C57.1403 594.076 56.3629 593.306 55.6242 592.52C55.1333 592.1 54.5641 591.579 53.9181 590.953C50.1931 587.346 47.0001 582.695 47.0001 580.875C47.0001 580.534 47.4311 580.717 48.1187 581.254C45.1907 574.448 44.5885 567.071 46.4891 559.667C48.4911 551.866 48.5091 551.678 47.5091 549.253C45.9661 545.509 48.9051 548.653 51.9921 554.048C53.7051 557.042 55.7581 562.851 56.6661 567.277C58.5181 576.298 59.3471 578.215 62.0101 579.64C66.8691 582.241 68.2321 577.54 66.0811 565.601C65.5431 562.612 64.6651 554.632 64.1311 547.866C63.0441 534.101 61.4391 529.495 54.1301 519.167C51.3866 515.29 50.0896 510.574 50.4648 505.84L50.5181 505.167C51.5581 492.042 54.7941 475.632 61.5991 448.972C70.0321 415.937 70.9471 410.207 71.6941 385.774C72.1281 371.56 72.7651 364.081 73.7461 361.667C76.6951 354.409 84.2311 326.713 86.8001 313.696C89.0931 302.079 89.4531 297.827 89.3491 283.611C89.2291 267.133 89.2121 267.016 85.7261 258.37C83.8001 253.593 82.6351 249.43 83.1381 249.119C83.6401 248.808 84.5711 249.817 85.2061 251.361C95.6281 276.702 104.547 286.218 121.656 290.252C130.358 292.304 144.456 291.656 155.06 288.717C159.185 287.574 163.91 286.395 165.56 286.098C166.148 285.992 166.443 286.784 165.926 287.083C164.477 287.923 159.752 289.627 155.426 290.871C148.954 292.732 145.078 293.135 133.56 293.15L127.885 293.157C122.406 293.164 116.996 291.932 112.06 289.553C104.37 285.847 98.7411 281.046 94.2911 274.397C92.9031 272.323 91.6991 270.748 91.6161 270.897C91.5321 271.045 91.7621 278.367 92.1261 287.167C92.6201 299.117 93.3401 305.065 94.9691 310.667C102.169 335.413 107.06 358.474 107.06 367.669C107.06 370.226 106.396 377.05 105.584 382.832C104.617 389.721 104.186 399.778 104.334 412.007L104.56 430.669L110.036 432.262C131.053 438.374 150.818 440.785 182.141 440.95C183.589 440.958 185.061 440.961 186.56 440.959C219.559 440.919 243.585 438.184 263.753 432.171L268.946 430.623L268.809 421.395C268.734 416.32 268.786 407.791 268.925 402.443C269.063 397.094 268.644 389.073 267.993 384.619C266.318 373.166 267.275 351.506 269.979 339.667C271.172 334.442 274.195 323.207 276.696 314.7C281.114 299.674 281.248 298.817 281.401 284.584L281.499 275.563C281.517 273.891 279.35 273.216 278.416 274.604C270.163 286.862 258.125 292.632 240.752 292.655C230.598 292.669 213.28 289.408 208.06 286.5C206.135 285.427 205.411 284.811 206.451 285.131C207.491 285.451 214.016 286.872 220.951 288.289C242.846 292.763 257.016 290.667 269.559 281.1C274.113 277.627 280.699 267.426 285.514 256.388C289.176 247.994 291.091 245.034 291.033 247.858C291.018 248.578 289.633 252.317 287.955 256.167C283.927 265.409 282.163 283.486 283.954 297.167C286.101 313.557 290.926 334.964 295.901 350.167L298.365 357.695C299.987 362.651 300.896 367.813 301.064 373.025L301.473 385.667C302.296 411.134 303.566 419.296 311.193 448.122C318.627 476.216 322.06 494.301 322.06 505.364C322.06 513.525 321.956 513.894 318.214 518.96C311.309 528.309 309.7 533.129 308.13 549.167C307.646 554.117 306.666 562.554 305.953 567.915C304.527 578.633 305.046 580.389 309.325 579.315C312.204 578.593 314.392 574.077 316.608 564.284C318.14 557.512 323.036 546.418 325.038 545.181C326.354 544.367 326.327 544.988 324.907 548.103C323.989 550.119 324.117 551.974 325.537 557.219C329.055 570.217 325.536 582.116 314.934 593.071C309.835 598.34 308.066 600.875 308.063 602.917C308.059 606.745 309.818 606.419 316.767 601.304C326.591 594.072 331.613 587.509 336.959 574.912C341.553 564.089 343.06 561.223 343.06 563.306C343.06 564.6 336.377 581.125 333.851 586.076C332.752 588.232 329.311 592.45 326.206 595.451C320.135 601.316 322.142 600.963 330.588 594.679C334.855 591.504 336.65 588.989 342.454 578.053C342.766 577.466 343.064 576.906 343.35 576.369C346.185 571.044 347.771 568.065 348.531 564.888C349.497 560.853 349.131 556.5 348.299 546.62L348.21 545.56C348.172 545.107 348.133 544.643 348.093 544.167C346.076 519.994 347.057 492.16 351.3 453.167C352.848 438.938 353.483 426.819 353.5 411.167C353.527 386.462 352.595 379.479 346.48 358.617C343.268 347.655 342.727 344.195 341.954 329.667C340.815 308.243 339.658 298.749 335.94 280.306C332.939 265.416 331.131 260.272 330.99 266.217C330.951 267.84 330.494 270.067 329.973 271.167C329.263 272.668 329.148 272.17 329.511 269.167C333.511 236.089 332.348 223.144 323.816 205.755C318.998 195.934 310.915 186.764 302.737 181.841C299.698 180.012 291.216 176.369 283.886 173.745C273.678 170.091 267.014 166.828 250.045 156.983C247.726 155.637 245.284 154.51 242.751 153.631L224.727 147.376ZM169.249 161.154C168.374 160.613 165.489 152.693 161.453 139.75C161.238 139.063 161.403 138.5 161.819 138.5C162.235 138.5 164.082 143.113 165.925 148.75C167.767 154.387 169.514 159.636 169.807 160.414C170.128 161.265 169.906 161.56 169.249 161.154ZM197.343 158.404C198.646 155.432 200.498 150.608 201.458 147.685C202.418 144.762 203.429 142.596 203.705 142.871C204.353 143.52 200.291 155.872 197.792 160.847C194.938 166.53 194.596 164.67 197.343 158.404ZM139.528 177.704C129.06 177.103 119.16 176.174 117.528 175.641C115.388 174.942 117.211 174.827 124.06 175.227C129.285 175.532 140.311 176.165 148.562 176.633C163.225 177.466 172.06 179.439 172.06 181.883C172.06 182.45 171.304 182.56 170.31 182.138C165.041 179.901 156.602 178.685 139.528 177.704ZM205.277 179.681C209.297 177.236 212.819 176.709 231.56 175.743C252.778 174.649 260.355 174.628 256.56 175.674C254.91 176.128 244.11 176.989 232.56 177.586C213.83 178.555 211.046 178.926 206.81 181.017C201.459 183.658 200.341 182.683 205.277 179.681ZM187.06 187.667C186.082 187.667 184.219 186.782 182.921 185.7C181.622 184.619 181.096 183.719 181.751 183.7C182.406 183.682 183.22 184.117 183.56 184.667C183.9 185.217 185.475 185.667 187.06 185.667C188.081 185.667 189.098 185.48 189.783 185.201C190.162 185.046 190.439 184.863 190.56 184.667C190.9 184.117 191.714 183.682 192.369 183.7C193.638 183.735 191.721 185.494 189.722 186.657C188.728 187.236 187.714 187.667 187.06 187.667ZM254.31 269.329C253.623 269.607 252.498 269.607 251.81 269.329C251.123 269.052 251.685 268.825 253.06 268.825C254.435 268.825 254.998 269.052 254.31 269.329ZM123.789 270.271C123.457 270.603 122.594 270.639 121.873 270.35C121.075 270.031 121.312 269.794 122.477 269.746C123.531 269.703 124.121 269.939 123.789 270.271ZM248.508 271.049C247.618 271.39 247.217 271.222 247.567 270.656C247.903 270.112 248.601 269.667 249.119 269.667C250.557 269.667 250.24 270.384 248.508 271.049ZM116.994 276.632C115.105 275.62 114.397 272.663 115.727 271.334C116.821 270.24 117.035 270.568 116.366 272.312C115.052 275.737 122.889 278.247 126.062 275.417C127.254 274.354 127.266 274.428 126.139 275.917C124.667 277.862 119.979 278.229 116.994 276.632ZM247.14 273.917C248.642 276.496 255.637 276.317 257.298 273.657C257.989 272.552 258.72 272.146 258.923 272.755C259.61 274.818 256.258 276.918 252.102 277.027C248.156 277.131 246.066 275.785 246.106 273.167C246.114 272.617 246.579 272.955 247.14 273.917ZM49.0971 375.95C48.0781 374.878 42.9731 359.047 43.0501 357.198C43.1061 355.858 49.9981 374.455 49.9991 375.95C50.0001 376.55 49.6671 376.55 49.0971 375.95ZM320.948 376.236C319.478 377.145 319.897 374.617 322.783 365.167C324.294 360.217 325.678 356.931 325.859 357.865C326.274 360.017 322.135 375.503 320.948 376.236Z" fill="#E7A97B"/>
<path d="M153.877 53.035C144.219 52.996 143.613 52.219 149.876 47.905C152.049 46.408 153.154 46.6706 155.276 47.1746C156.305 47.419 157.573 47.7202 159.317 47.905C160.698 48.0513 161.977 48.1801 163.16 48.2993C172.705 49.261 176 49.593 176 53.336C176 54.548 174.882 54.647 169.25 53.929C165.538 53.457 158.62 53.0541 153.877 53.035Z" fill="#684219"/>
<path fill-rule="evenodd" clip-rule="evenodd" d="M153.25 58.991C149.229 60.738 149.121 62.55 152.904 64.784C157.977 67.781 172.799 66.4351 171.699 63.078C171.505 62.4851 169.851 60.988 168.025 59.75C164.178 57.143 158.207 56.837 153.25 58.991ZM157 60.918C157 61.698 157.273 63.048 157.607 63.918C158.386 65.947 156.159 65.9411 153.5 63.9061C151.524 62.3941 151.523 62.3591 153.441 60.938C155.896 59.12 157 59.113 157 60.918ZM165.296 65.5C167.47 65.5 170 64.429 170 63.508C170 63.08 168.805 61.947 167.345 60.991C164.82 59.336 164.723 59.336 165.363 61.002C165.465 61.2667 165.522 61.5649 165.539 61.8738C165.297 62.181 165.131 62.5525 165.069 62.9624L164.895 64.127C164.012 65.19 164.103 65.5 165.296 65.5Z" fill="#272525"/>
</g>
<g id="pants">
<g id="Group">
<g id="Vector" filter="url(#filter0_i_90_871)">
<path d="M74 637.071L100.06 422.929L265.942 421L283.483 528.995L293 629L242.889 634.749L198 642L180.809 528.995L174 639H125.118L74 637.071Z" fill="#2F88FF"/>
</g>
<path id="Vector_2" d="M180.562 422.589L196.656 469.615" stroke="white" stroke-width="2" stroke-linecap="round" stroke-linejoin="round"/>
<path id="Vector_3" d="M180.562 422.589L159.104 472.974" stroke="white" stroke-width="2" stroke-linecap="round" stroke-linejoin="round"/>
</g>
</g>
<g id="shirt" clip-path="url(#clip0_90_871)">
<g id="Vector_4" filter="url(#filter1_i_90_871)">
<path d="M344.5 258C344.5 258 323.5 191.5 309.778 182.3C296.056 173.1 263.809 162.122 247 155.5C247 155.5 218.6 196.562 187.528 196.562C156.456 196.562 121.5 159 121.5 159C104.181 165.622 73.4281 177.715 65.2781 182.3C40.5 191.5 32 255.5 32 255.5C39.5 291 89.5 296.5 89.5 296.5L90 288L90.5469 342C90.5469 342 93.5 382.5 94 385.5C94.5 388.5 97.5 449.5 97.5 449.5C136.722 472.422 160.022 449.5 187.528 449.5C215.034 449.5 232.778 468.413 272 446L281 298.5L281.5 287L283.5 298.5C280.069 298.5 327.691 297.731 344.5 258Z" fill="#42ADE2"/>
</g>
</g>
<path id="nose" d="M176 57.5H192L198 92.5H169.5L176 57.5Z" fill="#D9D9D9" fill-opacity="0.01"/>
<path id="mouth" d="M171.404 99.5H199.474L210 107.5L185 114L160 107.5L171.404 99.5Z" fill="#D9D9D9" fill-opacity="0.01"/>
<path id="hair" d="M153.5 2.032L174.5 0L205.5 2.032L225 13.5L228.5 26.5L229.5 38L225 63.5L212.5 23L202.5 15.5L186 18.5H179L163.5 15.5L152 18.5L144 44L139.5 63.5L137.5 33.528L144 18.5L153.5 2.032Z" fill="#D9D9D9" fill-opacity="0.01"/>
<path id="head" d="M153.5 17.5L161 15.5L181.5 20L198 16L208.5 20L216 33L220.5 40L221 42.5L145 43.5L149 26.5L153.5 17.5Z" fill="#D9D9D9" fill-opacity="0.01"/>
<path id="abdomens" d="M94 302.5H278.5L271 375H186L103.5 372.986L94 302.5Z" fill="#D9D9D9" fill-opacity="0.01"/>
<path id="neck" d="M154.5 127L183.5 137L213 121L217 153.5H151L154.5 127Z" fill="#D9D9D9" fill-opacity="0.01"/>
<path id="heart" d="M193.5 210.277L229.038 225.193L263.5 210.277L229.038 278.777L193.5 210.277Z" fill="#D9D9D9" fill-opacity="0.01"/>
<rect id="abdomeni" x="105" y="376.5" width="160" height="59" fill="#D9D9D9" fill-opacity="0.01"/>
<path id="arml" d="M46.0191 219.5L89.5 228.5V315.5L70.4466 366.5H25.5L34.2939 291.5L46.0191 219.5Z" fill="#D9D9D9" fill-opacity="0.01"/>
<path id="armr" d="M271 236L336.5 230L340 305.5L351 383L302.5 390.5L287 309.5L271 236Z" fill="#D9D9D9" fill-opacity="0.01"/>
<path id="anklel" d="M103.588 906H138V978L128 997H73L103.588 957.096V906Z" fill="#D9D9D9" fill-opacity="0.01"/>
<path id="ankler" d="M234 905.5H263.5V957.5L298.5 1000.5L251 1004L230.5 982L234 905.5Z" fill="#D9D9D9" fill-opacity="0.01"/>
<path id="legl" d="M190.5 546L279.5 538V653L268 705L276 756L279.5 795V833L263.5 914L250.5 906L236 914L220.5 814.5L223.5 760.5L209 661.5L190.5 546Z" fill="#D9D9D9" fill-opacity="0.01"/>
<path id="legr" d="M97.5001 549L176.5 544.5L167.555 619.446L162 678L157.105 711.5L152 732.5L145 756.5L149 791V825L135.5 910L123.5 906H107.5L89 801.5L97.5001 756.5L102.866 702.5L92.5 650L97.5001 549Z" fill="#D9D9D9" fill-opacity="0.01"/>
<path id="handl" d="M25.5 368H72V411.5L49.5 509.5L64.5 539.5L25.5 542L19 444.827V409L25.5 368Z" fill="#D9D9D9" fill-opacity="0.01"/>
<path id="handr" d="M302.5 390L349.972 379.5V444.565V478.888L346 539.5H311.199L324.5 514.5L321.773 482.5L311.199 434.5L302.5 390Z" fill="#D9D9D9" fill-opacity="0.01"/>
<rect id="nailsl" x="19" y="556.5" width="48" height="50" fill="#D9D9D9" fill-opacity="0.01"/>
<rect id="nailsr" x="299" y="548.5" width="51" height="61" fill="#D9D9D9" fill-opacity="0.01"/>
<path id="shoulderl" d="M202.5 167.088L223.5 147.5L294.5 175L314.5 187.5L233.5 215L202.5 167.088Z" fill="#D9D9D9" fill-opacity="0.01"/>
<path id="shoulderr" d="M146.5 144.5L173 165L146.5 220.5L42 212L57.5 184L146.5 144.5Z" fill="#D9D9D9" fill-opacity="0.01"/>
<rect id="eyel" x="147" y="46.5" width="27" height="19" fill="#D9D9D9" fill-opacity="0.01"/>
<rect id="eyer" x="192" y="46.5" width="27" height="19" fill="#D9D9D9" fill-opacity="0.01"/>
</g>
<defs>
<filter id="filter0_i_90_871" x="74" y="421" width="223" height="225" filterUnits="userSpaceOnUse" color-interpolation-filters="sRGB">
<feFlood flood-opacity="0" result="BackgroundImageFix"/>
<feBlend mode="normal" in="SourceGraphic" in2="BackgroundImageFix" result="shape"/>
<feColorMatrix in="SourceAlpha" type="matrix" values="0 0 0 0 0 0 0 0 0 0 0 0 0 0 0 0 0 0 127 0" result="hardAlpha"/>
<feOffset dx="4" dy="4"/>
<feGaussianBlur stdDeviation="2"/>
<feComposite in2="hardAlpha" operator="arithmetic" k2="-1" k3="1"/>
<feColorMatrix type="matrix" values="0 0 0 0 0 0 0 0 0 0 0 0 0 0 0 0 0 0 0.25 0"/>
<feBlend mode="normal" in2="shape" result="effect1_innerShadow_90_871"/>
</filter>
<filter id="filter1_i_90_871" x="32" y="155.5" width="316.5" height="308.188" filterUnits="userSpaceOnUse" color-interpolation-filters="sRGB">
<feFlood flood-opacity="0" result="BackgroundImageFix"/>
<feBlend mode="normal" in="SourceGraphic" in2="BackgroundImageFix" result="shape"/>
<feColorMatrix in="SourceAlpha" type="matrix" values="0 0 0 0 0 0 0 0 0 0 0 0 0 0 0 0 0 0 127 0" result="hardAlpha"/>
<feOffset dx="4" dy="4"/>
<feGaussianBlur stdDeviation="2"/>
<feComposite in2="hardAlpha" operator="arithmetic" k2="-1" k3="1"/>
<feColorMatrix type="matrix" values="0 0 0 0 0 0 0 0 0 0 0 0 0 0 0 0 0 0 0.25 0"/>
<feBlend mode="normal" in2="shape" result="effect1_innerShadow_90_871"/>
</filter>
<clipPath id="clip0_90_871">
<rect width="318" height="318" fill="white" transform="translate(29 142)"/>
</clipPath>
</defs>
</svg>
