<svg width="291" height="157" viewBox="0 0 291 157" fill="none" xmlns="http://www.w3.org/2000/svg">
<path d="M128.232 118.472C122.6 118.472 118.632 116.723 116.328 113.224C114.109 109.725 113 105.245 113 99.784C113 96.3707 113.341 92.7013 114.024 88.776C114.792 84.8507 115.773 80.9253 116.968 77C114.664 80.84 111.805 84.8507 108.392 89.032C104.979 93.2133 101.267 97.096 97.256 100.68C93.3307 104.264 89.32 107.165 85.224 109.384C81.128 111.603 77.2453 112.712 73.576 112.712C70.8453 112.712 68.968 111.773 67.944 109.896C66.92 108.104 66.408 106.184 66.408 104.136C66.408 102.259 66.7067 100.509 67.304 98.888C68.4133 95.9013 69.736 92.7867 71.272 89.544C72.8933 86.3013 74.6427 83.016 76.52 79.688C78.7387 75.7627 80.8293 71.7947 82.792 67.784C84.84 63.7733 86.504 59.7627 87.784 55.752C89.1493 51.656 89.832 47.56 89.832 43.464C89.832 38.6853 88.4667 35.2293 85.736 33.096C83.0053 30.8773 79.3787 29.768 74.856 29.768C73.7467 29.768 72.5093 29.9813 71.144 30.408C69.7787 30.8347 68.84 31.2613 68.328 31.688C67.7307 32.2 67.2187 32.456 66.792 32.456C66.3653 32.456 66.152 32.2427 66.152 31.816C66.152 31.4747 66.408 31.048 66.92 30.536C67.688 29.8533 68.9253 29.2133 70.632 28.616C72.424 27.9333 74.3867 27.592 76.52 27.592C80.5307 27.592 84.1573 28.6587 87.4 30.792C90.6427 32.84 92.904 36.0827 94.184 40.52C94.696 42.312 94.952 44.1893 94.952 46.152C94.952 49.736 94.2693 53.4907 92.904 57.416C91.624 61.3413 89.9173 65.2667 87.784 69.192C85.6507 73.1173 83.432 76.9573 81.128 80.712C79.08 84.04 77.1173 87.4107 75.24 90.824C73.3627 94.152 71.9547 97.3093 71.016 100.296C70.6747 101.32 70.376 102.344 70.12 103.368C69.9493 104.307 69.864 105.117 69.864 105.8C69.864 107.677 70.376 108.957 71.4 109.64C72.424 110.408 73.5333 110.792 74.728 110.792C77.8 110.792 81.0853 109.768 84.584 107.72C88.168 105.672 91.7093 103.027 95.208 99.784C98.792 96.456 102.163 92.9573 105.32 89.288C108.477 85.5333 111.208 81.992 113.512 78.664C115.816 75.2507 117.523 72.4773 118.632 70.344C119.144 69.2347 119.571 68.6373 119.912 68.552C121.875 63.2613 124.008 58.3547 126.312 53.832C128.616 49.224 130.835 45.3413 132.968 42.184C135.187 39.0267 137.064 37.0213 138.6 36.168C138.856 35.9973 139.24 35.912 139.752 35.912C140.605 35.912 141.032 36.1253 141.032 36.552C141.032 36.9787 140.648 37.3627 139.88 37.704C138.685 38.3013 137.149 40.136 135.272 43.208C133.395 46.1947 131.389 49.9493 129.256 54.472C127.208 58.9093 125.288 63.7733 123.496 69.064C121.704 74.2693 120.211 79.5173 119.016 84.808C117.907 90.0133 117.352 94.8347 117.352 99.272C117.352 104.221 118.248 108.275 120.04 111.432C121.917 114.589 125.075 116.168 129.512 116.168C130.536 116.168 131.475 115.955 132.328 115.528H132.2C132.797 115.187 133.309 115.016 133.736 115.016C134.077 115.016 134.248 115.144 134.248 115.4C134.248 115.912 133.821 116.467 132.968 117.064C131.603 118.003 130.024 118.472 128.232 118.472ZM150.729 74.312C150.388 74.312 150.004 74.2267 149.577 74.056C149.236 73.8853 149.065 73.544 149.065 73.032C149.065 72.0933 149.62 71.368 150.729 70.856C151.924 70.2587 152.905 69.96 153.673 69.96C154.1 69.96 154.484 70.0453 154.825 70.216C155.252 70.3867 155.465 70.6853 155.465 71.112C155.465 72.0507 154.868 72.8187 153.673 73.416C152.478 74.0133 151.497 74.312 150.729 74.312ZM158.409 103.112C157.129 104.648 155.806 105.971 154.441 107.08C153.161 108.104 151.924 108.616 150.729 108.616C149.62 108.616 148.638 108.104 147.785 107.08C146.932 105.971 146.206 104.179 145.609 101.704C145.524 100.936 145.396 99.8267 145.225 98.376C145.14 96.9253 145.097 95.432 145.097 93.896C145.097 92.2747 145.14 90.7387 145.225 89.288C145.396 87.752 145.524 86.5573 145.609 85.704C145.78 85.0213 146.121 84.2533 146.633 83.4C147.23 82.5467 147.956 82.12 148.809 82.12C149.577 82.12 149.961 82.5467 149.961 83.4C149.961 83.4853 149.918 83.5707 149.833 83.656C149.833 83.7413 149.833 83.8267 149.833 83.912C149.492 85.8747 149.236 87.8373 149.065 89.8C148.894 91.6773 148.809 93.5973 148.809 95.56C148.809 98.9733 149.065 101.448 149.577 102.984C150.174 104.52 150.985 105.288 152.009 105.288C152.777 105.288 153.673 104.947 154.697 104.264C155.721 103.496 156.873 102.515 158.153 101.32C159.262 100.296 160.329 99.144 161.353 97.864C162.377 96.584 163.486 94.9627 164.681 93C164.852 92.5733 165.108 92.36 165.449 92.36C166.046 92.36 166.132 92.7867 165.705 93.64C164.852 95.0053 163.785 96.4987 162.505 98.12C161.225 99.7413 159.86 101.405 158.409 103.112ZM170.166 108.616C169.825 108.701 169.526 108.787 169.27 108.872C169.014 108.872 168.801 108.872 168.63 108.872C167.521 108.872 166.966 108.317 166.966 107.208C166.966 106.525 167.179 105.672 167.606 104.648L171.702 95.56C172.47 93.8533 173.281 91.7627 174.134 89.288C174.987 86.8133 175.414 84.5093 175.414 82.376C175.414 82.0347 175.371 81.6507 175.286 81.224C175.201 80.7973 174.945 80.584 174.518 80.584C174.006 80.584 173.366 80.8827 172.598 81.48C171.83 82.0773 171.275 82.376 170.934 82.376C170.678 82.376 170.55 82.2907 170.55 82.12C170.55 81.608 170.934 81.1387 171.702 80.712C172.47 80.2 173.323 79.7733 174.262 79.432C175.201 79.0907 175.883 78.92 176.31 78.92C177.505 78.92 178.358 79.304 178.87 80.072C179.467 80.84 179.766 81.7787 179.766 82.888C179.766 84.0827 179.339 85.704 178.486 87.752C177.718 89.7147 176.779 91.848 175.67 94.152C174.561 96.3707 173.451 98.4613 172.342 100.424C171.233 102.387 170.379 103.923 169.782 105.032C169.526 105.544 169.398 105.928 169.398 106.184C169.398 106.696 169.654 106.952 170.166 106.952C170.678 106.952 171.147 106.781 171.574 106.44C172.939 105.501 174.646 103.965 176.694 101.832C178.742 99.6133 180.662 97.2667 182.454 94.792C184.246 92.232 185.441 90.056 186.038 88.264C186.294 87.4107 186.977 86.984 188.086 86.984C188.683 86.984 189.195 87.112 189.622 87.368C190.049 87.624 190.262 88.008 190.262 88.52C190.262 88.6907 190.134 89.0747 189.878 89.672C189.707 90.184 189.537 90.568 189.366 90.824C188.513 92.9573 187.617 95.048 186.678 97.096C185.739 99.144 185.27 101.277 185.27 103.496C185.27 104.349 185.355 104.904 185.526 105.16C185.697 105.331 185.953 105.416 186.294 105.416C186.977 105.416 187.915 104.819 189.11 103.624C190.305 102.429 191.457 101.192 192.566 99.912C193.675 98.5467 194.401 97.608 194.742 97.096C195.169 96.4987 195.553 96.2 195.894 96.2C196.15 96.2 196.278 96.2853 196.278 96.456C196.278 96.7973 195.979 97.3093 195.382 97.992C194.785 98.6747 193.931 99.784 192.822 101.32C191.713 102.856 190.518 104.307 189.238 105.672C187.958 106.952 186.763 107.592 185.654 107.592C184.289 107.592 183.222 107.165 182.454 106.312C181.771 105.373 181.43 104.264 181.43 102.984C181.43 101.875 181.643 100.68 182.07 99.4C182.582 98.0347 183.009 96.9253 183.35 96.072C182.326 97.096 181.003 98.5467 179.382 100.424C177.846 102.216 176.267 103.923 174.646 105.544C173.025 107.165 171.531 108.189 170.166 108.616ZM209.409 74.312C209.068 74.312 208.684 74.2267 208.257 74.056C207.916 73.8853 207.745 73.544 207.745 73.032C207.745 72.0933 208.3 71.368 209.409 70.856C210.604 70.2587 211.585 69.96 212.353 69.96C212.78 69.96 213.164 70.0453 213.505 70.216C213.932 70.3867 214.145 70.6853 214.145 71.112C214.145 72.0507 213.548 72.8187 212.353 73.416C211.158 74.0133 210.177 74.312 209.409 74.312ZM217.089 103.112C215.809 104.648 214.486 105.971 213.121 107.08C211.841 108.104 210.604 108.616 209.409 108.616C208.3 108.616 207.318 108.104 206.465 107.08C205.612 105.971 204.886 104.179 204.289 101.704C204.204 100.936 204.076 99.8267 203.905 98.376C203.82 96.9253 203.777 95.432 203.777 93.896C203.777 92.2747 203.82 90.7387 203.905 89.288C204.076 87.752 204.204 86.5573 204.289 85.704C204.46 85.0213 204.801 84.2533 205.313 83.4C205.91 82.5467 206.636 82.12 207.489 82.12C208.257 82.12 208.641 82.5467 208.641 83.4C208.641 83.4853 208.598 83.5707 208.513 83.656C208.513 83.7413 208.513 83.8267 208.513 83.912C208.172 85.8747 207.916 87.8373 207.745 89.8C207.574 91.6773 207.489 93.5973 207.489 95.56C207.489 98.9733 207.745 101.448 208.257 102.984C208.854 104.52 209.665 105.288 210.689 105.288C211.457 105.288 212.353 104.947 213.377 104.264C214.401 103.496 215.553 102.515 216.833 101.32C217.942 100.296 219.009 99.144 220.033 97.864C221.057 96.584 222.166 94.9627 223.361 93C223.532 92.5733 223.788 92.36 224.129 92.36C224.726 92.36 224.812 92.7867 224.385 93.64C223.532 95.0053 222.465 96.4987 221.185 98.12C219.905 99.7413 218.54 101.405 217.089 103.112Z" fill="#AD7BBD"/>
<path d="M3.17917 154V134.079H17.7917C19.5611 134.079 21.2236 134.439 22.7792 135.158C24.3347 135.858 25.1125 137.258 25.1125 139.358C25.1125 140.467 24.8014 141.361 24.1792 142.042C23.5569 142.703 22.8083 143.189 21.9333 143.5V143.529C23.0222 143.821 23.9069 144.356 24.5875 145.133C25.2875 145.911 25.6375 146.951 25.6375 148.254C25.6375 150.354 24.8597 151.842 23.3042 152.717C21.7486 153.572 20.0569 154 18.2292 154H3.17917ZM5.74583 151.871H18.2292C19.8042 151.871 21 151.54 21.8167 150.879C22.6333 150.218 23.0417 149.343 23.0417 148.254C23.0417 147.146 22.6333 146.281 21.8167 145.658C21 145.036 19.8042 144.725 18.2292 144.725H5.74583V151.871ZM5.74583 142.567H17.7917C19.3667 142.567 20.5333 142.285 21.2917 141.721C22.0694 141.137 22.4583 140.35 22.4583 139.358C22.4583 138.308 22.0694 137.531 21.2917 137.025C20.5333 136.5 19.3667 136.237 17.7917 136.237H5.74583V142.567ZM30.8408 154V151.842H41.8075V136.237H30.8408V134.079H55.3992V136.237H44.4325V151.842H55.3992V154H30.8408ZM72.2692 154.438C69.0025 154.438 66.1831 153.64 63.8108 152.046C61.4386 150.432 60.2525 147.856 60.2525 144.317V143.821C60.2525 140.282 61.4386 137.715 63.8108 136.121C66.1831 134.507 69.0025 133.7 72.2692 133.7C75.5164 133.7 78.3261 134.517 80.6983 136.15C83.0706 137.764 84.2567 140.321 84.2567 143.821V144.317C84.2567 147.817 83.0706 150.383 80.6983 152.017C78.3261 153.631 75.5164 154.438 72.2692 154.438ZM72.2692 152.162C74.8358 152.162 77.0331 151.55 78.8608 150.325C80.6886 149.1 81.6025 147.097 81.6025 144.317V143.821C81.6025 141.04 80.6886 139.037 78.8608 137.812C77.0331 136.568 74.8358 135.946 72.2692 135.946C69.6636 135.946 67.4469 136.558 65.6192 137.783C63.8108 139.008 62.9067 141.021 62.9067 143.821V144.317C62.9067 147.117 63.8206 149.129 65.6483 150.354C67.4761 151.56 69.6831 152.162 72.2692 152.162ZM90.2475 154V134.079H93.66L100.689 149.508L101.331 151.229H101.448L102.06 149.508L109.089 134.079H112.502V154H109.964V139.271L110.081 137.404H109.964L109.293 139.271L102.556 154H100.164L93.3975 139.271L92.7558 137.404H92.6392L92.7267 139.271V154H90.2475ZM119.659 154V134.079H142.847V136.267H122.284V142.654H140.368V144.812H122.284V151.871H143.08V154H119.659ZM158.317 154V136.267H146.971V134.079H172.229V136.267H160.942V154H158.317ZM177.899 154V134.079H193.328C195.137 134.079 196.741 134.556 198.141 135.508C199.56 136.461 200.27 137.939 200.27 139.942C200.27 142.003 199.58 143.51 198.199 144.462C196.819 145.396 195.195 145.862 193.328 145.862H180.524V154H177.899ZM180.524 143.733H193.328C194.534 143.733 195.545 143.422 196.362 142.8C197.198 142.178 197.616 141.225 197.616 139.942C197.616 138.658 197.198 137.725 196.362 137.142C195.526 136.539 194.514 136.237 193.328 136.237H180.524V143.733ZM198.258 154L191.666 145.483L194.466 144.987L201.378 154H198.258ZM205.561 154V151.842H216.527V136.237H205.561V134.079H230.119V136.237H219.152V151.842H230.119V154H205.561ZM247.66 154.438C246.027 154.438 244.432 154.233 242.877 153.825C241.341 153.397 239.97 152.756 238.764 151.9C237.578 151.025 236.625 149.936 235.906 148.633C235.186 147.331 234.827 145.804 234.827 144.054C234.827 142.285 235.186 140.758 235.906 139.475C236.625 138.172 237.578 137.093 238.764 136.237C239.97 135.382 241.341 134.75 242.877 134.342C244.432 133.914 246.027 133.7 247.66 133.7C248.807 133.7 250.013 133.797 251.277 133.992C252.541 134.186 253.727 134.536 254.835 135.042C255.963 135.528 256.935 136.199 257.752 137.054C258.588 137.91 259.142 139.008 259.414 140.35H256.789C256.536 139.475 256.06 138.756 255.36 138.192C254.66 137.628 253.863 137.181 252.968 136.85C252.074 136.5 251.15 136.267 250.198 136.15C249.264 136.014 248.418 135.946 247.66 135.946C246.416 135.946 245.181 136.121 243.956 136.471C242.75 136.821 241.661 137.336 240.689 138.017C239.736 138.697 238.959 139.543 238.356 140.554C237.773 141.565 237.481 142.732 237.481 144.054C237.481 146.835 238.521 148.886 240.602 150.208C242.702 151.511 245.054 152.162 247.66 152.162C248.321 152.162 249.148 152.104 250.139 151.987C251.15 151.851 252.132 151.628 253.085 151.317C254.038 150.986 254.874 150.529 255.593 149.946C256.313 149.362 256.711 148.624 256.789 147.729H259.414C259.298 149.071 258.821 150.179 257.985 151.054C257.149 151.929 256.138 152.619 254.952 153.125C253.785 153.611 252.541 153.951 251.218 154.146C249.896 154.34 248.71 154.438 247.66 154.438ZM276.226 154.438C272.726 154.438 269.761 154.019 267.33 153.183C264.919 152.347 263.713 150.811 263.713 148.575V148.4H266.338V148.575C266.338 149.8 267.155 150.704 268.788 151.287C270.441 151.871 272.92 152.162 276.226 152.162C279.415 152.162 281.845 151.9 283.517 151.375C285.209 150.85 286.055 150.092 286.055 149.1C286.055 148.381 285.549 147.778 284.538 147.292C283.527 146.786 282.361 146.378 281.038 146.067C279.736 145.736 278.472 145.483 277.247 145.308C276.022 145.114 275.186 144.978 274.738 144.9C273.844 144.744 272.804 144.569 271.617 144.375C270.431 144.181 269.304 143.879 268.234 143.471C267.184 143.062 266.29 142.489 265.551 141.75C264.812 141.011 264.442 140.029 264.442 138.804C264.442 137.249 265.308 136.014 267.038 135.1C268.788 134.167 271.773 133.7 275.992 133.7C280.698 133.7 283.867 134.244 285.501 135.333C287.134 136.403 287.951 137.774 287.951 139.446V139.621H285.297V139.446C285.297 138.182 284.567 137.287 283.109 136.762C281.67 136.218 279.298 135.946 275.992 135.946C272.823 135.946 270.538 136.169 269.138 136.617C267.738 137.064 267.038 137.832 267.038 138.921C267.038 139.426 267.417 139.883 268.176 140.292C268.934 140.681 269.838 141.031 270.888 141.342C271.938 141.633 273.017 141.886 274.126 142.1C275.254 142.294 276.177 142.45 276.897 142.567C280.805 143.189 283.722 143.937 285.647 144.812C287.591 145.668 288.563 147.097 288.563 149.1C288.563 150.889 287.484 152.231 285.326 153.125C283.167 154 280.134 154.438 276.226 154.438Z" fill="#1A1B41"/>
<rect width="30" height="30" transform="translate(203 127)" fill="white"/>
<path d="M210.4 137.892C210.237 137.893 210.078 137.841 209.947 137.744C209.816 137.647 209.72 137.51 209.674 137.354C209.628 137.198 209.634 137.031 209.691 136.878C209.749 136.725 209.854 136.596 209.992 136.508L217.434 131.733C217.517 131.679 217.61 131.641 217.708 131.622C217.805 131.603 217.906 131.604 218.003 131.624C218.101 131.644 218.193 131.683 218.276 131.739C218.358 131.795 218.429 131.867 218.484 131.95C218.538 132.033 218.576 132.126 218.595 132.224C218.614 132.322 218.613 132.422 218.593 132.52C218.573 132.617 218.533 132.71 218.478 132.792C218.422 132.875 218.35 132.945 218.267 133L210.809 137.767C210.687 137.847 210.546 137.89 210.4 137.892Z" fill="#AD7BBD"/>
<path d="M214.042 139.592C213.879 139.593 213.72 139.541 213.589 139.444C213.458 139.347 213.362 139.21 213.316 139.054C213.27 138.898 213.276 138.731 213.333 138.578C213.39 138.425 213.496 138.296 213.633 138.208L218 135.4C218.083 135.345 218.176 135.307 218.274 135.289C218.372 135.27 218.473 135.271 218.57 135.291C218.668 135.311 218.76 135.35 218.842 135.406C218.925 135.462 218.995 135.533 219.05 135.617C219.105 135.7 219.143 135.793 219.161 135.891C219.18 135.989 219.179 136.089 219.159 136.187C219.139 136.284 219.1 136.377 219.044 136.459C218.988 136.541 218.917 136.612 218.833 136.667L214.45 139.5C214.325 139.569 214.184 139.6 214.042 139.592Z" fill="#AD7BBD"/>
<path d="M219.433 152.192C219.27 152.193 219.111 152.141 218.98 152.044C218.849 151.947 218.754 151.81 218.707 151.654C218.661 151.498 218.667 151.331 218.725 151.178C218.782 151.025 218.887 150.896 219.025 150.808L226.467 146.033C226.635 145.923 226.84 145.884 227.037 145.924C227.234 145.965 227.406 146.082 227.517 146.25C227.627 146.418 227.667 146.623 227.626 146.82C227.585 147.017 227.468 147.189 227.3 147.3L219.833 152.075C219.714 152.151 219.575 152.191 219.433 152.192Z" fill="#AD7BBD"/>
<path d="M218.767 148.617C218.604 148.618 218.445 148.566 218.314 148.469C218.183 148.372 218.087 148.235 218.041 148.079C217.995 147.923 218.001 147.756 218.058 147.603C218.115 147.45 218.221 147.321 218.359 147.233L222.734 144.425C222.9 144.314 223.104 144.275 223.3 144.315C223.497 144.354 223.669 144.471 223.779 144.637C223.89 144.804 223.93 145.008 223.89 145.204C223.85 145.401 223.734 145.573 223.567 145.683L219.167 148.5C219.047 148.576 218.909 148.616 218.767 148.617Z" fill="#AD7BBD"/>
<path d="M220.967 131.742C221.24 132.18 221.394 132.681 221.416 133.196C221.438 133.712 221.326 134.224 221.092 134.683L218.692 139.5H220.567L222.592 135.442C222.952 134.729 223.123 133.937 223.09 133.139C223.057 132.342 222.82 131.566 222.403 130.886C221.985 130.206 221.4 129.645 220.704 129.255C220.008 128.865 219.223 128.659 218.425 128.658H214.05L213.217 130.325H218.4C218.913 130.323 219.418 130.452 219.868 130.7C220.317 130.947 220.695 131.306 220.967 131.742Z" fill="#AD7BBD"/>
<path d="M230.425 144.317C230.119 143.399 229.532 142.601 228.746 142.035C227.961 141.47 227.018 141.166 226.05 141.167H210.759C210.36 141.169 209.966 141.091 209.599 140.937C209.232 140.783 208.9 140.556 208.622 140.271C208.345 139.985 208.129 139.646 207.986 139.274C207.843 138.903 207.777 138.506 207.792 138.108C207.811 137.66 207.931 137.221 208.142 136.825L211.692 129.75C211.791 129.552 211.808 129.323 211.739 129.113C211.669 128.903 211.519 128.729 211.321 128.629C211.123 128.53 210.894 128.513 210.684 128.582C210.474 128.652 210.3 128.802 210.2 129L206.667 136.033C206.371 136.589 206.189 137.198 206.132 137.825C206.075 138.451 206.143 139.083 206.334 139.683C206.641 140.605 207.232 141.406 208.023 141.972C208.813 142.538 209.762 142.839 210.734 142.833H217.067L214.2 148.558C213.719 149.518 213.58 150.613 213.808 151.662C214.035 152.711 214.615 153.651 215.45 154.325C216.266 154.99 217.29 155.347 218.342 155.333H222.717L223.55 153.667H218.359C217.845 153.671 217.34 153.544 216.89 153.296C216.441 153.048 216.063 152.688 215.794 152.252C215.524 151.815 215.371 151.317 215.35 150.804C215.33 150.291 215.442 149.782 215.675 149.325L218.925 142.833H226.042C226.689 142.821 227.321 143.03 227.834 143.425C228.379 143.848 228.761 144.448 228.913 145.121C229.065 145.795 228.978 146.5 228.667 147.117L225.234 153.967C225.134 154.164 225.117 154.394 225.187 154.604C225.256 154.814 225.407 154.988 225.604 155.087C225.802 155.187 226.031 155.204 226.242 155.134C226.452 155.065 226.626 154.914 226.725 154.717L230.109 147.967C230.402 147.41 230.581 146.8 230.635 146.174C230.689 145.547 230.618 144.915 230.425 144.317Z" fill="#AD7BBD"/>
</svg>
